<?xml version="1.0" standalone="no"?>
<!DOCTYPE svg PUBLIC "-//W3C//DTD SVG 20010904//EN"
 "http://www.w3.org/TR/2001/REC-SVG-20010904/DTD/svg10.dtd">
<svg version="1.0" xmlns="http://www.w3.org/2000/svg"
 width="64.000000pt" height="64.000000pt" viewBox="0 0 64.000000 64.000000"
 preserveAspectRatio="xMidYMid meet">

<g transform="translate(0.000000,64.000000) scale(0.100000,-0.100000)"
fill="#a8acb1" stroke="none">
<path d="M210 490 c0 -68 1 -70 25 -70 17 0 29 -8 37 -25 12 -27 28 -24 28 6
0 17 7 19 65 19 l65 0 0 70 0 70 -110 0 -110 0 0 -70z m93 33 c-7 -2 -19 -2
-25 0 -7 3 -2 5 12 5 14 0 19 -2 13 -5z m90 0 c-13 -2 -33 -2 -45 0 -13 2 -3
4 22 4 25 0 35 -2 23 -4z m-93 -33 c0 -5 -7 -10 -15 -10 -8 0 -15 5 -15 10 0
6 7 10 15 10 8 0 15 -4 15 -10z m100 0 c0 -5 -16 -10 -35 -10 -19 0 -35 5 -35
10 0 6 16 10 35 10 19 0 35 -4 35 -10z m-97 -37 c-7 -2 -19 -2 -25 0 -7 3 -2
5 12 5 14 0 19 -2 13 -5z m90 0 c-13 -2 -33 -2 -45 0 -13 2 -3 4 22 4 25 0 35
-2 23 -4z"/>
<path d="M373 383 c9 -2 25 -2 35 0 9 3 1 5 -18 5 -19 0 -27 -2 -17 -5z"/>
<path d="M455 371 c-41 -17 -78 -81 -47 -81 16 -1 16 -1 0 -11 -20 -11 -24
-39 -7 -39 25 0 82 35 111 69 27 32 30 30 13 -12 -7 -16 41 -67 63 -67 21 0
10 75 -16 109 -24 33 -58 39 -67 12 -3 -11 -19 -30 -36 -41 -38 -28 -38 -16 1
17 47 39 38 65 -15 44z"/>
<path d="M100 361 c-56 -13 -88 -52 -55 -65 18 -7 47 3 40 14 -3 4 12 6 34 3
21 -3 48 0 60 7 19 10 26 9 42 -6 10 -9 19 -29 20 -43 l0 -26 12 24 c9 19 9
25 -1 29 -6 2 -12 9 -12 16 0 7 -12 21 -27 33 -28 20 -67 25 -113 14z"/>
<path d="M161 299 c-14 -5 -30 -8 -37 -5 -7 3 -26 0 -43 -7 -28 -10 -31 -16
-31 -52 0 -92 34 -145 92 -145 46 0 80 39 86 98 2 28 1 67 -2 86 -7 38 -20 43
-65 25z m-41 -77 c0 -4 -9 -8 -20 -8 -11 0 -20 4 -20 8 0 4 9 8 20 8 11 0 20
-4 20 -8z m80 0 c0 -4 -9 -8 -20 -8 -11 0 -20 4 -20 8 0 4 9 8 20 8 11 0 20
-4 20 -8z m-30 -74 c0 -5 -11 -8 -24 -8 -14 0 -27 3 -29 8 -3 4 8 7 24 7 16 0
29 -3 29 -7z"/>
<path d="M31 274 c0 -11 3 -14 6 -6 3 7 2 16 -1 19 -3 4 -6 -2 -5 -13z"/>
<path d="M451 247 l-53 -30 5 -45 c9 -83 89 -121 142 -67 20 19 25 34 24 72 0
41 -5 51 -32 74 l-32 25 -54 -29z m7 -29 c8 -10 4 -13 -14 -14 -20 -2 -23 1
-13 12 14 17 14 17 27 2z m92 -6 c0 -4 -9 -8 -20 -8 -22 0 -27 12 -7 19 14 5
27 -1 27 -11z m-36 -73 c-6 -11 -54 -12 -54 -1 0 4 13 7 30 8 16 1 27 -3 24
-7z"/>
<path d="M573 125 c-23 -48 -20 -54 15 -29 14 10 22 25 22 45 0 41 -11 36 -37
-16z"/>
</g>
</svg>
